<svg xmlns="http://www.w3.org/2000/svg" version="1.1" xmlns:xlink="http://www.w3.org/1999/xlink" xmlns:svgjs="http://svgjs.com/svgjs" width="1000" height="1000"><rect width="1000" height="1000" rx="150" ry="150" fill="#ffffff"></rect><g transform="matrix(1,0,0,1,0,0)"><svg xmlns="http://www.w3.org/2000/svg" version="1.1" xmlns:xlink="http://www.w3.org/1999/xlink" xmlns:svgjs="http://svgjs.com/svgjs" width="800.000000pt" height="669.000000pt"><svg version="1.0" xmlns="http://www.w3.org/2000/svg" width="800.000000pt" height="669.000000pt" viewBox="0 0 800.000000 669.000000" preserveAspectRatio="xMidYMid meet">

<g transform="translate(0.000000,669.000000) scale(0.100000,-0.100000)" fill="#000000" stroke="none">
<path d="M3065 6674 c-16 -3 -88 -11 -160 -20 -692 -84 -1365 -408 -1881 -906
-545 -528 -878 -1177 -992 -1938 -23 -158 -26 -203 -26 -465 0 -262 3 -307 26
-465 114 -761 447 -1410 992 -1938 519 -501 1155 -807 1891 -909 186 -26 655
-26 845 0 705 96 1315 381 1845 862 114 104 303 316 408 458 318 429 525 909
611 1422 35 205 46 346 46 570 0 224 -11 365 -46 570 -133 793 -565 1524
-1198 2033 -477 383 -1032 620 -1656 708 -110 15 -630 29 -705 18z m75 -3329
l0 -2745 -32 0 c-18 0 -96 9 -173 21 -538 79 -1028 310 -1446 682 -166 148
-307 312 -444 517 -615 922 -615 2127 0 3050 113 169 197 272 340 416 361 363
819 621 1315 739 116 28 332 63 398 64 l42 1 0 -2745z m601 2724 c78 -11 152
-25 165 -30 l24 -9 0 -2685 0 -2685 -24 -9 c-27 -11 -294 -51 -337 -51 l-29 0
0 2745 0 2745 29 0 c16 0 93 -9 172 -21z m720 -209 c62 -28 146 -69 186 -91
l73 -40 0 -2384 0 -2384 -73 -40 c-87 -48 -293 -141 -313 -141 -12 0 -14 383
-14 2565 0 2182 2 2565 14 2565 8 0 65 -23 127 -50z m845 -591 c426 -438 690
-986 766 -1589 17 -137 17 -533 0 -670 -64 -506 -260 -973 -580 -1380 -90
-115 -357 -384 -372 -375 -11 7 -15 4167 -4 4178 10 10 70 -42 190 -164z"></path>
<path d="M7385 4806 c-237 -75 -366 -318 -294 -552 94 -303 457 -410 706 -207
56 45 98 107 129 190 23 60 25 79 22 163 -4 80 -9 106 -36 162 -54 117 -156
208 -275 243 -61 18 -196 19 -252 1z"></path>
<path d="M7420 2739 c-66 -13 -159 -62 -209 -110 -228 -220 -169 -588 117
-722 56 -26 82 -32 158 -35 147 -7 248 32 343 133 111 118 150 284 101 436
-70 217 -285 342 -510 298z"></path>
</g>
</svg></svg></g></svg>